<svg xmlns="http://www.w3.org/2000/svg" width="150" height="150"><defs><clipPath id="a"><path fill="#fff" d="M470 4640v-150h150v150z"/></clipPath></defs><path fill="none" d="M0 150V0h150v150z"/><path fill="none" stroke="#95e1d3" stroke-linecap="round" stroke-linejoin="round" stroke-miterlimit="50" stroke-width="6" d="M470 4640v-150h150v150z" clip-path="url(&quot;#a&quot;)" transform="translate(-470 -4490)"/><path fill="#95e1d3" d="M104 81h-2v5c0 .2-.02.41-.06.6-.03.14-.08.27-.12.4l-.06.17c-.04.11-.11.22-.17.32l-.1.19c-.1.14-.21.27-.34.4l-.03.04a3 3 0 0 1-2.08.87L99 89a3 3 0 0 1-2.12-.88L89.76 81H62a3 3 0 0 1-3-3V48a3 3 0 0 1 3-3h42a3 3 0 0 1 3 3v30a3 3 0 0 1-3 3zm-42 3a6 6 0 0 1-6-6V57h-9a3 3 0 0 0-3 3v34a3 3 0 0 0 3 3h4v6c0 .21.02.41.06.6.03.14.08.27.12.4l.06.17c.04.11.11.21.17.32.04.06.06.13.1.18.1.15.21.28.34.41l.03.04a3 3 0 0 0 2.08.87l.04.01a3 3 0 0 0 2.12-.88L64.24 97H96a3 3 0 0 0 3-3v-2a6 6 0 0 1-4.15-1.68L88.5 84z"/></svg>